<mxfile host="Electron" agent="Mozilla/5.0 (Windows NT 10.0; Win64; x64) AppleWebKit/537.36 (KHTML, like Gecko) draw.io/24.7.17 Chrome/128.0.6613.36 Electron/32.0.1 Safari/537.36" version="24.7.17">
  <diagram id="C5RBs43oDa-KdzZeNtuy" name="Page-1">
    <mxGraphModel dx="6836" dy="5044" grid="1" gridSize="10" guides="1" tooltips="1" connect="1" arrows="1" fold="1" page="1" pageScale="1" pageWidth="1100" pageHeight="850" math="0" shadow="0">
      <root>
        <mxCell id="WIyWlLk6GJQsqaUBKTNV-0" />
        <mxCell id="WIyWlLk6GJQsqaUBKTNV-1" parent="WIyWlLk6GJQsqaUBKTNV-0" />
        <mxCell id="HjSV1TEzzstD-xtGG22P-8" value="Router" style="swimlane;fontStyle=0;align=center;verticalAlign=top;childLayout=stackLayout;horizontal=1;startSize=26;horizontalStack=0;resizeParent=1;resizeLast=0;collapsible=1;marginBottom=0;rounded=0;shadow=0;strokeWidth=1;" parent="WIyWlLk6GJQsqaUBKTNV-1" vertex="1">
          <mxGeometry x="-840" y="-1550" width="160" height="132" as="geometry">
            <mxRectangle x="130" y="380" width="160" height="26" as="alternateBounds" />
          </mxGeometry>
        </mxCell>
        <mxCell id="L0K01jqNJSo1EcF0a_rl-21" value="" style="image;html=1;image=img/lib/clip_art/networking/Wireless_Router_128x128.png" vertex="1" parent="HjSV1TEzzstD-xtGG22P-8">
          <mxGeometry y="26" width="160" height="80" as="geometry" />
        </mxCell>
        <mxCell id="QhkTqGAl0PFYy6q8hVvx-3" value="" style="endArrow=none;html=1;rounded=0;strokeColor=default;align=center;verticalAlign=middle;fontFamily=Helvetica;fontSize=11;fontColor=default;labelBackgroundColor=default;" parent="WIyWlLk6GJQsqaUBKTNV-1" source="L0K01jqNJSo1EcF0a_rl-1" target="HjSV1TEzzstD-xtGG22P-8" edge="1">
          <mxGeometry relative="1" as="geometry">
            <mxPoint x="-810" y="-1291.6666666666667" as="sourcePoint" />
            <mxPoint x="-170" y="-1290" as="targetPoint" />
          </mxGeometry>
        </mxCell>
        <mxCell id="L0K01jqNJSo1EcF0a_rl-0" value="Base de datos" style="strokeWidth=2;html=1;shape=mxgraph.flowchart.database;whiteSpace=wrap;" vertex="1" parent="WIyWlLk6GJQsqaUBKTNV-1">
          <mxGeometry x="-600" y="-1180" width="100" height="80" as="geometry" />
        </mxCell>
        <mxCell id="L0K01jqNJSo1EcF0a_rl-1" value="Nodo 1" style="swimlane;startSize=20;horizontal=1;containerType=tree;newEdgeStyle={&quot;edgeStyle&quot;:&quot;elbowEdgeStyle&quot;,&quot;startArrow&quot;:&quot;none&quot;,&quot;endArrow&quot;:&quot;none&quot;};" vertex="1" parent="WIyWlLk6GJQsqaUBKTNV-1">
          <mxGeometry x="-1060" y="-1290" width="340" height="200" as="geometry" />
        </mxCell>
        <mxCell id="L0K01jqNJSo1EcF0a_rl-2" value="" style="edgeStyle=elbowEdgeStyle;elbow=vertical;sourcePerimeterSpacing=0;targetPerimeterSpacing=0;startArrow=none;endArrow=none;rounded=0;curved=0;" edge="1" parent="L0K01jqNJSo1EcF0a_rl-1" source="L0K01jqNJSo1EcF0a_rl-4" target="L0K01jqNJSo1EcF0a_rl-5">
          <mxGeometry relative="1" as="geometry" />
        </mxCell>
        <mxCell id="L0K01jqNJSo1EcF0a_rl-3" value="" style="edgeStyle=elbowEdgeStyle;elbow=vertical;sourcePerimeterSpacing=0;targetPerimeterSpacing=0;startArrow=none;endArrow=none;rounded=0;curved=0;" edge="1" parent="L0K01jqNJSo1EcF0a_rl-1" source="L0K01jqNJSo1EcF0a_rl-4" target="L0K01jqNJSo1EcF0a_rl-6">
          <mxGeometry relative="1" as="geometry" />
        </mxCell>
        <UserObject label="PC 1" treeRoot="1" id="L0K01jqNJSo1EcF0a_rl-4">
          <mxCell style="whiteSpace=wrap;html=1;align=center;treeFolding=1;treeMoving=1;newEdgeStyle={&quot;edgeStyle&quot;:&quot;elbowEdgeStyle&quot;,&quot;startArrow&quot;:&quot;none&quot;,&quot;endArrow&quot;:&quot;none&quot;};" vertex="1" parent="L0K01jqNJSo1EcF0a_rl-1">
            <mxGeometry x="120" y="30" width="90" height="40" as="geometry" />
          </mxCell>
        </UserObject>
        <mxCell id="L0K01jqNJSo1EcF0a_rl-5" value="Vendedor" style="whiteSpace=wrap;html=1;align=center;verticalAlign=middle;treeFolding=1;treeMoving=1;newEdgeStyle={&quot;edgeStyle&quot;:&quot;elbowEdgeStyle&quot;,&quot;startArrow&quot;:&quot;none&quot;,&quot;endArrow&quot;:&quot;none&quot;};" vertex="1" parent="L0K01jqNJSo1EcF0a_rl-1">
          <mxGeometry x="20" y="140" width="70" height="30" as="geometry" />
        </mxCell>
        <mxCell id="L0K01jqNJSo1EcF0a_rl-6" value="Administrador" style="whiteSpace=wrap;html=1;align=center;verticalAlign=middle;treeFolding=1;treeMoving=1;newEdgeStyle={&quot;edgeStyle&quot;:&quot;elbowEdgeStyle&quot;,&quot;startArrow&quot;:&quot;none&quot;,&quot;endArrow&quot;:&quot;none&quot;};" vertex="1" parent="L0K01jqNJSo1EcF0a_rl-1">
          <mxGeometry x="230" y="140" width="90" height="30" as="geometry" />
        </mxCell>
        <mxCell id="L0K01jqNJSo1EcF0a_rl-7" value="Impresora" style="whiteSpace=wrap;html=1;align=center;verticalAlign=middle;treeFolding=1;treeMoving=1;newEdgeStyle={&quot;edgeStyle&quot;:&quot;elbowEdgeStyle&quot;,&quot;startArrow&quot;:&quot;none&quot;,&quot;endArrow&quot;:&quot;none&quot;};" vertex="1" parent="L0K01jqNJSo1EcF0a_rl-1">
          <mxGeometry x="120" y="140" width="90" height="30" as="geometry" />
        </mxCell>
        <mxCell id="L0K01jqNJSo1EcF0a_rl-8" value="" style="edgeStyle=elbowEdgeStyle;elbow=vertical;sourcePerimeterSpacing=0;targetPerimeterSpacing=0;startArrow=none;endArrow=none;rounded=0;curved=0;exitX=0.5;exitY=1;exitDx=0;exitDy=0;" edge="1" parent="L0K01jqNJSo1EcF0a_rl-1" source="L0K01jqNJSo1EcF0a_rl-4" target="L0K01jqNJSo1EcF0a_rl-7">
          <mxGeometry relative="1" as="geometry">
            <mxPoint x="260" y="70" as="sourcePoint" />
            <mxPoint x="290" y="150" as="targetPoint" />
          </mxGeometry>
        </mxCell>
        <mxCell id="L0K01jqNJSo1EcF0a_rl-18" value="" style="endArrow=none;html=1;rounded=0;strokeColor=default;align=center;verticalAlign=middle;fontFamily=Helvetica;fontSize=11;fontColor=default;labelBackgroundColor=default;" edge="1" parent="WIyWlLk6GJQsqaUBKTNV-1" source="L0K01jqNJSo1EcF0a_rl-0" target="L0K01jqNJSo1EcF0a_rl-22">
          <mxGeometry relative="1" as="geometry">
            <mxPoint x="-801" y="-1280" as="sourcePoint" />
            <mxPoint x="-658" y="-1460" as="targetPoint" />
          </mxGeometry>
        </mxCell>
        <mxCell id="L0K01jqNJSo1EcF0a_rl-20" value="" style="endArrow=none;html=1;rounded=0;strokeColor=default;align=center;verticalAlign=middle;fontFamily=Helvetica;fontSize=11;fontColor=default;labelBackgroundColor=default;" edge="1" parent="WIyWlLk6GJQsqaUBKTNV-1" source="L0K01jqNJSo1EcF0a_rl-22" target="HjSV1TEzzstD-xtGG22P-8">
          <mxGeometry relative="1" as="geometry">
            <mxPoint x="-791" y="-1270" as="sourcePoint" />
            <mxPoint x="-648" y="-1450" as="targetPoint" />
          </mxGeometry>
        </mxCell>
        <mxCell id="L0K01jqNJSo1EcF0a_rl-22" value="Hosting" style="swimlane;fontStyle=0;align=center;verticalAlign=top;childLayout=stackLayout;horizontal=1;startSize=26;horizontalStack=0;resizeParent=1;resizeLast=0;collapsible=1;marginBottom=0;rounded=0;shadow=0;strokeWidth=1;swimlaneLine=0;glass=0;swimlaneHead=1;container=1;expand=1;" vertex="1" parent="WIyWlLk6GJQsqaUBKTNV-1">
          <mxGeometry x="-620" y="-1330" width="100" height="110" as="geometry">
            <mxRectangle x="130" y="380" width="160" height="26" as="alternateBounds" />
          </mxGeometry>
        </mxCell>
        <mxCell id="L0K01jqNJSo1EcF0a_rl-26" value="" style="image;html=1;points=[];align=center;fontSize=12;image=img/lib/mscae/WebHosting.svg;snapToPoint=0;fixDash=1;container=0;imageAspect=0;" vertex="1" parent="L0K01jqNJSo1EcF0a_rl-22">
          <mxGeometry y="26" width="100" height="74" as="geometry" />
        </mxCell>
      </root>
    </mxGraphModel>
  </diagram>
</mxfile>
